<svg width="145" height="145" viewBox="0 0 145 145" fill="none" xmlns="http://www.w3.org/2000/svg">
<path d="M118.809 87.5999C119.358 87.6004 119.903 87.4927 120.411 87.2827C120.919 87.0728 121.381 86.7649 121.771 86.3764C122.16 85.988 122.469 85.5267 122.68 85.0189C122.891 84.5111 122.999 83.9667 123 83.4168C123.001 82.8669 122.893 82.3223 122.683 81.8141C122.473 81.3058 122.165 80.8439 121.777 80.4547C121.388 80.0655 120.927 79.7566 120.419 79.5456C119.911 79.3347 119.367 79.2258 118.817 79.2253C117.706 79.2242 116.641 79.6643 115.855 80.4487C115.069 81.2332 114.627 82.2978 114.625 83.4084C114.624 84.5189 115.064 85.5844 115.849 86.3705C116.633 87.1565 117.698 87.5988 118.809 87.5999V87.5999ZM114.617 72.008H111.04C108.742 72.008 107.505 73.7334 107.505 76.6035V86.9813H100.73V72.008H97.851C95.549 72.008 94.316 73.7334 94.316 76.6035V86.9813H87.5406V66.4698H94.316V69.584C95.427 67.1684 96.9504 66.4698 99.2103 66.4698H107.509V69.584C108.62 67.1684 110.139 66.4698 112.399 66.4698H114.617V72.008V72.008ZM86.0593 78.3247H71.9235C72.2938 80.6225 73.733 81.9355 76.157 81.9355C77.9666 81.9355 79.2375 81.199 79.65 79.886L85.6468 81.5693C84.1697 85.138 80.5127 87.3095 76.157 87.3095C68.8009 87.3095 65.43 81.6072 65.43 76.7255C65.43 71.928 68.3885 66.1837 75.7404 66.1837C83.5511 66.1837 86.1392 72.008 86.1392 76.3173C86.1392 77.26 86.0971 77.8744 86.055 78.3247H86.0593ZM79.4858 74.3478C79.3175 72.5803 78.0466 70.9391 75.7446 70.9391C73.6068 70.9391 72.3359 71.886 71.9235 74.3478H79.4858V74.3478ZM53.5962 86.977H59.5552L66.9913 66.4656H60.1738L56.5546 78.4047L52.8597 66.4656H46.0717L53.592 86.977H53.5962ZM25.8212 86.977H32.5629V72.0038H38.9764V86.977H45.6719V66.4656H32.5629V65.1947C32.5629 63.7975 33.5519 62.939 35.1132 62.939H38.9764V57.4009H33.9938C29.1037 57.4009 25.817 60.3972 25.817 64.7865V66.4698H22V72.008H25.8212V86.9813V86.977Z" fill="black"/>
</svg>
