<svg width="145" height="145" viewBox="0 0 145 145" fill="none" xmlns="http://www.w3.org/2000/svg">
<path d="M121.513 43.5712C118.033 45.1129 114.296 46.1546 110.367 46.6254C114.421 44.1995 117.454 40.3815 118.9 35.8837C115.091 38.1462 110.922 39.7387 106.575 40.5921C103.652 37.4707 99.7795 35.4018 95.5598 34.7065C91.3401 34.0113 87.0089 34.7287 83.2386 36.7473C79.4684 38.7659 76.47 41.9727 74.7091 45.87C72.9482 49.7673 72.5232 54.1369 73.5001 58.3004C65.7822 57.9129 58.2319 55.9069 51.3394 52.4125C44.4469 48.9182 38.3661 44.0136 33.4918 38.0171C31.8251 40.8921 30.8668 44.2254 30.8668 47.7754C30.8649 50.9712 31.6519 54.1181 33.158 56.9368C34.664 59.7555 36.8425 62.1589 39.5001 63.9337C36.4179 63.8357 33.4038 63.0028 30.7085 61.5046V61.7546C30.7082 66.2368 32.2586 70.5811 35.0967 74.0504C37.9349 77.5196 41.8858 79.9001 46.2793 80.7879C43.4201 81.5617 40.4224 81.6757 37.5126 81.1212C38.7522 84.978 41.1668 88.3505 44.4183 90.7668C47.6699 93.183 51.5956 94.522 55.646 94.5962C48.7703 99.9938 40.2788 102.922 31.5376 102.909C29.9892 102.909 28.4421 102.819 26.9043 102.638C35.7771 108.343 46.1057 111.37 56.6543 111.359C92.3626 111.359 111.883 81.7837 111.883 56.1337C111.883 55.3004 111.863 54.4587 111.825 53.6254C115.622 50.8795 118.9 47.4791 121.504 43.5837L121.513 43.5712V43.5712Z" fill="black"/>
</svg>
