<svg width="145" height="145" viewBox="0 0 145 145" fill="none" xmlns="http://www.w3.org/2000/svg">
<path d="M72.5003 29.1667C48.5673 29.1667 29.167 48.5671 29.167 72.5001C29.167 96.4331 48.5673 115.833 72.5003 115.833C96.4333 115.833 115.834 96.4331 115.834 72.5001C115.834 48.5671 96.4333 29.1667 72.5003 29.1667ZM72.5003 35.4457C81.9405 35.4457 90.5573 38.9774 97.1007 44.7884C92.2928 51.1302 84.989 55.3531 77.67 58.2109C73.5268 50.6652 68.8833 43.4051 63.7708 36.4792C66.6302 35.79 69.5613 35.4431 72.5025 35.4457H72.5003ZM56.7357 38.9557C61.5673 46.1837 66.2473 52.8852 70.5222 60.4707C59.7105 63.2722 47.4927 64.9536 36.2065 64.9817C38.5855 53.4377 46.34 43.8524 56.7357 38.9579V38.9557ZM101.211 49.0741C106.565 55.6173 109.511 63.8006 109.555 72.2552C100.983 70.5652 92.4597 70.1232 83.78 70.9986C82.805 68.5654 81.622 66.2536 80.4888 63.7619C87.9703 60.7437 95.9697 55.5784 101.211 49.0719V49.0741ZM73.5317 66.2037C74.459 68.1754 75.5337 70.2684 76.5433 72.4069C64.475 77.7282 51.6375 84.8392 44.975 97.3062C38.579 90.2283 35.1704 80.9498 35.4633 71.4146C48.3875 71.3539 61.0733 69.7376 73.5317 66.2037V66.2037ZM93.114 76.3069C98.5064 76.3081 103.876 76.9998 109.093 78.3652C108.289 83.3838 106.461 88.1831 103.722 92.4648C100.983 96.7465 97.3932 100.419 93.1747 103.254C91.1857 94.2079 89.2898 85.5521 85.938 76.8247C88.3136 76.4786 90.7111 76.3048 93.1118 76.3047L93.114 76.3069ZM109.286 76.9786C109.26 77.1909 109.236 77.3989 109.206 77.6069C109.236 77.3967 109.262 77.1887 109.286 76.9786ZM79.0827 78.5169C82.4973 87.3417 85.1775 97.1134 86.9758 106.623C82.3981 108.565 77.4752 109.563 72.5025 109.557C64.2645 109.568 56.2596 106.822 49.7633 101.757C56.4735 90.8712 66.867 82.6336 79.0805 78.5191L79.0827 78.5169Z" fill="black"/>
</svg>
