<svg width="145" height="145" viewBox="0 0 145 145" fill="none" xmlns="http://www.w3.org/2000/svg">
<path d="M95.9883 75.3145C95.9492 68.6543 98.9668 63.6348 105.061 59.9336C101.652 55.0508 96.4961 52.3652 89.6992 51.8477C83.2637 51.3398 76.2227 55.5977 73.6445 55.5977C70.9199 55.5977 64.6895 52.0234 59.7871 52.0234C49.6699 52.1797 38.918 60.0898 38.918 76.1836C38.918 80.9395 39.7871 85.8516 41.5254 90.9102C43.8496 97.5703 52.2285 113.889 60.9687 113.625C65.5391 113.518 68.7715 110.383 74.7187 110.383C80.4902 110.383 83.4785 113.625 88.5762 113.625C97.3945 113.498 104.973 98.6641 107.18 91.9844C95.3535 86.4082 95.9883 75.6563 95.9883 75.3145V75.3145ZM85.7246 45.5293C90.6758 39.6504 90.2266 34.2988 90.0801 32.375C85.7051 32.6289 80.6465 35.3535 77.7656 38.7031C74.5918 42.2969 72.7266 46.7402 73.127 51.75C77.8535 52.1113 82.1699 49.6797 85.7246 45.5293V45.5293Z" fill="black"/>
</svg>
