<svg width="145" height="145" viewBox="0 0 145 145" fill="none" xmlns="http://www.w3.org/2000/svg">
<path d="M64.9404 69.335C65.7051 68.7812 66.0742 67.8672 66.0742 66.6104C66.1006 66.0127 65.9775 65.4238 65.7139 64.8877C65.4766 64.457 65.125 64.0967 64.6943 63.8418C64.2478 63.571 63.7518 63.3917 63.2354 63.3145C62.6729 63.209 62.1016 63.1563 61.5391 63.165H55.3604V70.1699H62.0488C63.2002 70.1787 64.1758 69.8975 64.9404 69.335V69.335ZM65.9775 75.6631C65.1162 75.0039 63.9648 74.6787 62.5322 74.6787H55.3428V82.9404H62.3916C63.0508 82.9404 63.6572 82.8789 64.2461 82.7559C64.8032 82.6469 65.3343 82.4321 65.8105 82.123C66.2588 81.833 66.6191 81.4375 66.8916 80.9277C67.1553 80.418 67.2871 79.7676 67.2871 78.9853C67.2871 77.4297 66.8477 76.3311 65.9775 75.6631V75.6631ZM73 33.625C51.2559 33.625 33.625 51.2559 33.625 73C33.625 94.7441 51.2559 112.375 73 112.375C94.7441 112.375 112.375 94.7441 112.375 73C112.375 51.2559 94.7441 33.625 73 33.625ZM80.6025 58.8408H92.7666V61.8027H80.6025V58.8408ZM73 83.2656C72.4311 84.3456 71.6186 85.2784 70.627 85.9902C69.5898 86.7109 68.4385 87.2383 67.2168 87.5459C65.9386 87.8884 64.6201 88.0569 63.2969 88.0469H48.7422V58.0674H62.8926C64.3252 58.0674 65.626 58.1992 66.8125 58.4453C67.9902 58.6914 68.9922 59.1133 69.8359 59.6846C70.6709 60.2559 71.3301 61.0205 71.7959 61.9697C72.2529 62.9102 72.4902 64.0879 72.4902 65.4854C72.4902 66.9971 72.1475 68.2451 71.4619 69.2559C70.7676 70.2666 69.7656 71.084 68.4033 71.7256C70.2578 72.2529 71.6201 73.1934 72.5166 74.5117C73.4307 75.8477 73.8789 77.4473 73.8789 79.3281C73.8789 80.8574 73.5889 82.167 73 83.2656ZM97.5039 78.625H81.8242C81.8242 80.3301 82.4131 81.9648 83.3008 82.8438C84.1973 83.7139 85.4805 84.1533 87.1592 84.1533C88.3721 84.1533 89.4004 83.8457 90.2793 83.2393C91.1494 82.6328 91.6768 81.9912 91.8701 81.3232H97.126C96.2822 83.9336 94.999 85.7969 93.2588 86.9219C91.5361 88.0469 89.4268 88.6094 86.9746 88.6094C85.2607 88.6094 83.7227 88.3281 82.3428 87.792C81.0156 87.2734 79.8203 86.4824 78.8359 85.4629C77.8654 84.4159 77.1151 83.1845 76.6299 81.8418C76.0937 80.3564 75.8301 78.792 75.8477 77.2188C75.8477 75.5928 76.1201 74.0811 76.6475 72.6748C77.6582 69.9414 79.7588 67.7529 82.4395 66.6191C83.8721 66.0215 85.4102 65.7227 86.9658 65.7402C88.8115 65.7402 90.4111 66.0918 91.7998 66.8125C93.1367 67.5007 94.2974 68.487 95.1924 69.6953C96.0801 70.8994 96.7041 72.2705 97.0996 73.8174C97.4775 75.3379 97.6094 76.9375 97.5039 78.625V78.625ZM86.7812 70.2227C85.832 70.2227 85.0322 70.3896 84.417 70.7148C83.8018 71.04 83.292 71.4443 82.9053 71.9102C82.537 72.3599 82.2648 72.8804 82.1055 73.4395C81.9648 73.9053 81.8682 74.3799 81.833 74.8633H91.5449C91.4043 73.3428 90.877 72.2178 90.1738 71.4268C89.4355 70.6445 88.249 70.2227 86.7812 70.2227V70.2227Z" fill="black"/>
</svg>
