<svg width="1440" height="900" viewBox="0 0 1440 900" fill="none" xmlns="http://www.w3.org/2000/svg">
<line y1="9.5" x2="1440" y2="9.5" stroke="black" stroke-opacity="0.08"/>
<line y1="0.5" x2="1440" y2="0.5" stroke="black" stroke-opacity="0.08"/>
<line y1="19.5" x2="1440" y2="19.5" stroke="black" stroke-opacity="0.08"/>
<line y1="29.5" x2="1440" y2="29.5" stroke="black" stroke-opacity="0.08"/>
<line y1="39.5" x2="1440" y2="39.5" stroke="black" stroke-opacity="0.08"/>
<line y1="49.5" x2="1440" y2="49.5" stroke="black" stroke-opacity="0.08"/>
<line y1="59.5" x2="1440" y2="59.5" stroke="black" stroke-opacity="0.08"/>
<line y1="69.5" x2="1440" y2="69.5" stroke="black" stroke-opacity="0.08"/>
<line y1="79.5" x2="1440" y2="79.5" stroke="black" stroke-opacity="0.08"/>
<line y1="89.5" x2="1440" y2="89.5" stroke="black" stroke-opacity="0.08"/>
<line y1="99.5" x2="1440" y2="99.5" stroke="black" stroke-opacity="0.08"/>
<line y1="109.5" x2="1440" y2="109.5" stroke="black" stroke-opacity="0.08"/>
<line y1="119.5" x2="1440" y2="119.5" stroke="black" stroke-opacity="0.08"/>
<line y1="129.5" x2="1440" y2="129.5" stroke="black" stroke-opacity="0.08"/>
<line y1="139.5" x2="1440" y2="139.5" stroke="black" stroke-opacity="0.08"/>
<line y1="149.5" x2="1440" y2="149.5" stroke="black" stroke-opacity="0.08"/>
<line y1="159.5" x2="1440" y2="159.5" stroke="black" stroke-opacity="0.08"/>
<line y1="169.5" x2="1440" y2="169.5" stroke="black" stroke-opacity="0.08"/>
<line y1="179.5" x2="1440" y2="179.5" stroke="black" stroke-opacity="0.08"/>
<line y1="189.5" x2="1440" y2="189.5" stroke="black" stroke-opacity="0.08"/>
<line y1="199.5" x2="1440" y2="199.5" stroke="black" stroke-opacity="0.08"/>
<line y1="209.5" x2="1440" y2="209.5" stroke="black" stroke-opacity="0.08"/>
<line y1="219.5" x2="1440" y2="219.5" stroke="black" stroke-opacity="0.08"/>
<line y1="229.5" x2="1440" y2="229.5" stroke="black" stroke-opacity="0.08"/>
<line y1="239.5" x2="1440" y2="239.5" stroke="black" stroke-opacity="0.08"/>
<line y1="249.5" x2="1440" y2="249.5" stroke="black" stroke-opacity="0.08"/>
<line y1="259.5" x2="1440" y2="259.5" stroke="black" stroke-opacity="0.08"/>
<line y1="269.5" x2="1440" y2="269.5" stroke="black" stroke-opacity="0.08"/>
<line y1="279.5" x2="1440" y2="279.5" stroke="black" stroke-opacity="0.08"/>
<line y1="289.5" x2="1440" y2="289.5" stroke="black" stroke-opacity="0.08"/>
<line y1="299.5" x2="1440" y2="299.5" stroke="black" stroke-opacity="0.08"/>
<line y1="309.5" x2="1440" y2="309.5" stroke="black" stroke-opacity="0.08"/>
<line y1="319.5" x2="1440" y2="319.5" stroke="black" stroke-opacity="0.08"/>
<line y1="329.5" x2="1440" y2="329.5" stroke="black" stroke-opacity="0.08"/>
<line y1="339.5" x2="1440" y2="339.5" stroke="black" stroke-opacity="0.08"/>
<line y1="349.5" x2="1440" y2="349.5" stroke="black" stroke-opacity="0.08"/>
<line y1="359.5" x2="1440" y2="359.5" stroke="black" stroke-opacity="0.08"/>
<line y1="369.5" x2="1440" y2="369.5" stroke="black" stroke-opacity="0.08"/>
<line y1="379.5" x2="1440" y2="379.5" stroke="black" stroke-opacity="0.08"/>
<line y1="389.5" x2="1440" y2="389.5" stroke="black" stroke-opacity="0.08"/>
<line y1="399.5" x2="1440" y2="399.5" stroke="black" stroke-opacity="0.08"/>
<line y1="409.5" x2="1440" y2="409.5" stroke="black" stroke-opacity="0.08"/>
<line y1="419.5" x2="1440" y2="419.5" stroke="black" stroke-opacity="0.08"/>
<line y1="429.5" x2="1440" y2="429.5" stroke="black" stroke-opacity="0.08"/>
<line y1="439.5" x2="1440" y2="439.5" stroke="black" stroke-opacity="0.08"/>
<line y1="449.5" x2="1440" y2="449.5" stroke="black" stroke-opacity="0.08"/>
<line y1="459.5" x2="1440" y2="459.5" stroke="black" stroke-opacity="0.08"/>
<line y1="469.5" x2="1440" y2="469.5" stroke="black" stroke-opacity="0.08"/>
<line y1="479.5" x2="1440" y2="479.5" stroke="black" stroke-opacity="0.08"/>
<line y1="489.5" x2="1440" y2="489.5" stroke="black" stroke-opacity="0.08"/>
<line y1="499.5" x2="1440" y2="499.5" stroke="black" stroke-opacity="0.08"/>
<line y1="509.5" x2="1440" y2="509.5" stroke="black" stroke-opacity="0.08"/>
<line y1="519.5" x2="1440" y2="519.5" stroke="black" stroke-opacity="0.08"/>
<line y1="529.5" x2="1440" y2="529.5" stroke="black" stroke-opacity="0.08"/>
<line y1="539.5" x2="1440" y2="539.5" stroke="black" stroke-opacity="0.08"/>
<line y1="549.5" x2="1440" y2="549.5" stroke="black" stroke-opacity="0.08"/>
<line y1="559.5" x2="1440" y2="559.5" stroke="black" stroke-opacity="0.08"/>
<line y1="569.5" x2="1440" y2="569.5" stroke="black" stroke-opacity="0.08"/>
<line y1="579.5" x2="1440" y2="579.5" stroke="black" stroke-opacity="0.08"/>
<line y1="589.5" x2="1440" y2="589.5" stroke="black" stroke-opacity="0.08"/>
<line y1="599.5" x2="1440" y2="599.5" stroke="black" stroke-opacity="0.08"/>
<line y1="609.5" x2="1440" y2="609.5" stroke="black" stroke-opacity="0.08"/>
<line y1="619.5" x2="1440" y2="619.5" stroke="black" stroke-opacity="0.08"/>
<line y1="629.5" x2="1440" y2="629.5" stroke="black" stroke-opacity="0.08"/>
<line y1="639.5" x2="1440" y2="639.5" stroke="black" stroke-opacity="0.08"/>
<line y1="649.5" x2="1440" y2="649.5" stroke="black" stroke-opacity="0.08"/>
<line y1="659.5" x2="1440" y2="659.5" stroke="black" stroke-opacity="0.08"/>
<line y1="669.5" x2="1440" y2="669.5" stroke="black" stroke-opacity="0.08"/>
<line y1="679.5" x2="1440" y2="679.5" stroke="black" stroke-opacity="0.08"/>
<line y1="689.5" x2="1440" y2="689.5" stroke="black" stroke-opacity="0.08"/>
<line y1="699.5" x2="1440" y2="699.5" stroke="black" stroke-opacity="0.08"/>
<line y1="709.5" x2="1440" y2="709.5" stroke="black" stroke-opacity="0.08"/>
<line y1="719.5" x2="1440" y2="719.5" stroke="black" stroke-opacity="0.08"/>
<line y1="729.5" x2="1440" y2="729.5" stroke="black" stroke-opacity="0.08"/>
<line y1="739.5" x2="1440" y2="739.5" stroke="black" stroke-opacity="0.08"/>
<line y1="749.5" x2="1440" y2="749.5" stroke="black" stroke-opacity="0.08"/>
<line y1="759.5" x2="1440" y2="759.5" stroke="black" stroke-opacity="0.08"/>
<line y1="769.5" x2="1440" y2="769.5" stroke="black" stroke-opacity="0.08"/>
<line y1="779.5" x2="1440" y2="779.5" stroke="black" stroke-opacity="0.08"/>
<line y1="789.5" x2="1440" y2="789.5" stroke="black" stroke-opacity="0.08"/>
<line y1="799.5" x2="1440" y2="799.5" stroke="black" stroke-opacity="0.08"/>
<line y1="809.5" x2="1440" y2="809.5" stroke="black" stroke-opacity="0.08"/>
<line y1="819.5" x2="1440" y2="819.5" stroke="black" stroke-opacity="0.08"/>
<line y1="829.5" x2="1440" y2="829.5" stroke="black" stroke-opacity="0.08"/>
<line y1="839.5" x2="1440" y2="839.5" stroke="black" stroke-opacity="0.08"/>
<line y1="849.5" x2="1440" y2="849.5" stroke="black" stroke-opacity="0.08"/>
<line y1="859.5" x2="1440" y2="859.5" stroke="black" stroke-opacity="0.08"/>
<line y1="869.5" x2="1440" y2="869.5" stroke="black" stroke-opacity="0.08"/>
<line y1="879.5" x2="1440" y2="879.5" stroke="black" stroke-opacity="0.08"/>
<line y1="889.5" x2="1440" y2="889.5" stroke="black" stroke-opacity="0.08"/>
<line x1="0.5" y1="2.18557e-08" x2="0.499961" y2="900" stroke="black" stroke-opacity="0.08"/>
<line x1="10.5" y1="2.18557e-08" x2="10.5" y2="900" stroke="black" stroke-opacity="0.08"/>
<line x1="20.5" y1="2.18557e-08" x2="20.5" y2="900" stroke="black" stroke-opacity="0.08"/>
<line x1="30.5" y1="2.18557e-08" x2="30.5" y2="900" stroke="black" stroke-opacity="0.08"/>
<line x1="40.5" y1="2.18557e-08" x2="40.5" y2="900" stroke="black" stroke-opacity="0.08"/>
<line x1="50.5" y1="2.18557e-08" x2="50.5" y2="900" stroke="black" stroke-opacity="0.08"/>
<line x1="60.5" y1="2.18557e-08" x2="60.5" y2="900" stroke="black" stroke-opacity="0.08"/>
<line x1="70.5" y1="2.18557e-08" x2="70.5" y2="900" stroke="black" stroke-opacity="0.08"/>
<line x1="80.5" y1="2.18557e-08" x2="80.5" y2="900" stroke="black" stroke-opacity="0.08"/>
<line x1="90.5" y1="2.18557e-08" x2="90.5" y2="900" stroke="black" stroke-opacity="0.08"/>
<line x1="100.5" y1="2.18557e-08" x2="100.5" y2="900" stroke="black" stroke-opacity="0.08"/>
<line x1="110.5" y1="2.18557e-08" x2="110.5" y2="900" stroke="black" stroke-opacity="0.08"/>
<line x1="120.5" y1="2.18557e-08" x2="120.5" y2="900" stroke="black" stroke-opacity="0.08"/>
<line x1="130.5" y1="2.18557e-08" x2="130.5" y2="900" stroke="black" stroke-opacity="0.08"/>
<line x1="140.5" y1="2.18557e-08" x2="140.5" y2="900" stroke="black" stroke-opacity="0.08"/>
<line x1="150.5" y1="2.18557e-08" x2="150.5" y2="900" stroke="black" stroke-opacity="0.08"/>
<line x1="160.5" y1="2.18557e-08" x2="160.5" y2="900" stroke="black" stroke-opacity="0.08"/>
<line x1="170.5" y1="2.18557e-08" x2="170.5" y2="900" stroke="black" stroke-opacity="0.08"/>
<line x1="180.5" y1="2.18557e-08" x2="180.5" y2="900" stroke="black" stroke-opacity="0.08"/>
<line x1="190.5" y1="2.18557e-08" x2="190.5" y2="900" stroke="black" stroke-opacity="0.08"/>
<line x1="200.5" y1="2.18557e-08" x2="200.5" y2="900" stroke="black" stroke-opacity="0.08"/>
<line x1="210.5" y1="2.18557e-08" x2="210.5" y2="900" stroke="black" stroke-opacity="0.08"/>
<line x1="220.5" y1="2.18557e-08" x2="220.5" y2="900" stroke="black" stroke-opacity="0.08"/>
<line x1="230.5" y1="2.18557e-08" x2="230.5" y2="900" stroke="black" stroke-opacity="0.08"/>
<line x1="240.5" y1="2.18557e-08" x2="240.5" y2="900" stroke="black" stroke-opacity="0.08"/>
<line x1="250.5" y1="2.18557e-08" x2="250.5" y2="900" stroke="black" stroke-opacity="0.08"/>
<line x1="260.5" y1="2.18557e-08" x2="260.5" y2="900" stroke="black" stroke-opacity="0.08"/>
<line x1="270.5" y1="2.18557e-08" x2="270.5" y2="900" stroke="black" stroke-opacity="0.08"/>
<line x1="280.5" y1="2.18557e-08" x2="280.5" y2="900" stroke="black" stroke-opacity="0.08"/>
<line x1="290.5" y1="2.18557e-08" x2="290.5" y2="900" stroke="black" stroke-opacity="0.08"/>
<line x1="300.5" y1="2.18557e-08" x2="300.5" y2="900" stroke="black" stroke-opacity="0.08"/>
<line x1="310.5" y1="2.18557e-08" x2="310.5" y2="900" stroke="black" stroke-opacity="0.08"/>
<line x1="320.5" y1="2.18557e-08" x2="320.5" y2="900" stroke="black" stroke-opacity="0.08"/>
<line x1="330.5" y1="2.18557e-08" x2="330.5" y2="900" stroke="black" stroke-opacity="0.08"/>
<line x1="340.5" y1="2.18557e-08" x2="340.5" y2="900" stroke="black" stroke-opacity="0.08"/>
<line x1="350.5" y1="2.18557e-08" x2="350.5" y2="900" stroke="black" stroke-opacity="0.08"/>
<line x1="360.5" y1="2.18557e-08" x2="360.5" y2="900" stroke="black" stroke-opacity="0.08"/>
<line x1="370.5" y1="2.18557e-08" x2="370.5" y2="900" stroke="black" stroke-opacity="0.08"/>
<line x1="380.5" y1="2.18557e-08" x2="380.5" y2="900" stroke="black" stroke-opacity="0.08"/>
<line x1="390.5" y1="2.18557e-08" x2="390.5" y2="900" stroke="black" stroke-opacity="0.08"/>
<line x1="400.5" y1="2.18557e-08" x2="400.5" y2="900" stroke="black" stroke-opacity="0.08"/>
<line x1="410.5" y1="2.18557e-08" x2="410.5" y2="900" stroke="black" stroke-opacity="0.08"/>
<line x1="420.5" y1="2.18557e-08" x2="420.5" y2="900" stroke="black" stroke-opacity="0.08"/>
<line x1="430.5" y1="2.18557e-08" x2="430.5" y2="900" stroke="black" stroke-opacity="0.08"/>
<line x1="440.5" y1="2.18557e-08" x2="440.5" y2="900" stroke="black" stroke-opacity="0.08"/>
<line x1="450.5" y1="2.18557e-08" x2="450.5" y2="900" stroke="black" stroke-opacity="0.08"/>
<line x1="460.5" y1="2.18557e-08" x2="460.5" y2="900" stroke="black" stroke-opacity="0.08"/>
<line x1="470.5" y1="2.18557e-08" x2="470.5" y2="900" stroke="black" stroke-opacity="0.08"/>
<line x1="480.5" y1="2.18557e-08" x2="480.5" y2="900" stroke="black" stroke-opacity="0.08"/>
<line x1="490.5" y1="2.18557e-08" x2="490.5" y2="900" stroke="black" stroke-opacity="0.08"/>
<line x1="500.5" y1="2.18557e-08" x2="500.5" y2="900" stroke="black" stroke-opacity="0.08"/>
<line x1="510.5" y1="2.18557e-08" x2="510.5" y2="900" stroke="black" stroke-opacity="0.08"/>
<line x1="520.5" y1="2.18557e-08" x2="520.5" y2="900" stroke="black" stroke-opacity="0.08"/>
<line x1="530.5" y1="2.18557e-08" x2="530.5" y2="900" stroke="black" stroke-opacity="0.08"/>
<line x1="540.5" y1="2.18557e-08" x2="540.5" y2="900" stroke="black" stroke-opacity="0.08"/>
<line x1="550.5" y1="2.18557e-08" x2="550.5" y2="900" stroke="black" stroke-opacity="0.08"/>
<line x1="560.5" y1="2.18557e-08" x2="560.5" y2="900" stroke="black" stroke-opacity="0.08"/>
<line x1="570.5" y1="2.18557e-08" x2="570.5" y2="900" stroke="black" stroke-opacity="0.08"/>
<line x1="580.5" y1="2.18557e-08" x2="580.5" y2="900" stroke="black" stroke-opacity="0.08"/>
<line x1="590.5" y1="2.18557e-08" x2="590.5" y2="900" stroke="black" stroke-opacity="0.08"/>
<line x1="600.5" y1="2.18557e-08" x2="600.5" y2="900" stroke="black" stroke-opacity="0.08"/>
<line x1="610.5" y1="2.18557e-08" x2="610.5" y2="900" stroke="black" stroke-opacity="0.08"/>
<line x1="620.5" y1="2.18557e-08" x2="620.5" y2="900" stroke="black" stroke-opacity="0.08"/>
<line x1="630.5" y1="2.18557e-08" x2="630.5" y2="900" stroke="black" stroke-opacity="0.08"/>
<line x1="640.5" y1="2.18557e-08" x2="640.5" y2="900" stroke="black" stroke-opacity="0.08"/>
<line x1="650.5" y1="2.18557e-08" x2="650.5" y2="900" stroke="black" stroke-opacity="0.08"/>
<line x1="660.5" y1="2.18557e-08" x2="660.5" y2="900" stroke="black" stroke-opacity="0.08"/>
<line x1="670.5" y1="2.18557e-08" x2="670.5" y2="900" stroke="black" stroke-opacity="0.08"/>
<line x1="680.5" y1="2.18557e-08" x2="680.5" y2="900" stroke="black" stroke-opacity="0.08"/>
<line x1="690.5" y1="2.18557e-08" x2="690.5" y2="900" stroke="black" stroke-opacity="0.08"/>
<line x1="700.5" y1="2.18557e-08" x2="700.5" y2="900" stroke="black" stroke-opacity="0.08"/>
<line x1="710.5" y1="2.18557e-08" x2="710.5" y2="900" stroke="black" stroke-opacity="0.08"/>
<line x1="720.5" y1="2.18557e-08" x2="720.5" y2="900" stroke="black" stroke-opacity="0.08"/>
<line x1="730.5" y1="2.18557e-08" x2="730.5" y2="900" stroke="black" stroke-opacity="0.08"/>
<line x1="740.5" y1="2.18557e-08" x2="740.5" y2="900" stroke="black" stroke-opacity="0.08"/>
<line x1="750.5" y1="2.18557e-08" x2="750.5" y2="900" stroke="black" stroke-opacity="0.08"/>
<line x1="760.5" y1="2.18557e-08" x2="760.5" y2="900" stroke="black" stroke-opacity="0.08"/>
<line x1="770.5" y1="2.18557e-08" x2="770.5" y2="900" stroke="black" stroke-opacity="0.08"/>
<line x1="780.5" y1="2.18557e-08" x2="780.5" y2="900" stroke="black" stroke-opacity="0.08"/>
<line x1="790.5" y1="2.18557e-08" x2="790.5" y2="900" stroke="black" stroke-opacity="0.08"/>
<line x1="800.5" y1="2.18557e-08" x2="800.5" y2="900" stroke="black" stroke-opacity="0.08"/>
<line x1="810.5" y1="2.18557e-08" x2="810.5" y2="900" stroke="black" stroke-opacity="0.08"/>
<line x1="820.5" y1="2.18557e-08" x2="820.5" y2="900" stroke="black" stroke-opacity="0.08"/>
<line x1="830.5" y1="2.18557e-08" x2="830.5" y2="900" stroke="black" stroke-opacity="0.08"/>
<line x1="840.5" y1="2.18557e-08" x2="840.5" y2="900" stroke="black" stroke-opacity="0.08"/>
<line x1="850.5" y1="2.18557e-08" x2="850.5" y2="900" stroke="black" stroke-opacity="0.08"/>
<line x1="860.5" y1="2.18557e-08" x2="860.5" y2="900" stroke="black" stroke-opacity="0.08"/>
<line x1="870.5" y1="2.18557e-08" x2="870.5" y2="900" stroke="black" stroke-opacity="0.08"/>
<line x1="880.5" y1="2.18557e-08" x2="880.5" y2="900" stroke="black" stroke-opacity="0.08"/>
<line x1="890.5" y1="2.18557e-08" x2="890.5" y2="900" stroke="black" stroke-opacity="0.08"/>
<line x1="900.5" y1="2.18557e-08" x2="900.5" y2="900" stroke="black" stroke-opacity="0.08"/>
<line x1="910.5" y1="2.18557e-08" x2="910.5" y2="900" stroke="black" stroke-opacity="0.08"/>
<line x1="920.5" y1="2.18557e-08" x2="920.5" y2="900" stroke="black" stroke-opacity="0.08"/>
<line x1="930.5" y1="2.18557e-08" x2="930.5" y2="900" stroke="black" stroke-opacity="0.08"/>
<line x1="940.5" y1="2.18557e-08" x2="940.5" y2="900" stroke="black" stroke-opacity="0.08"/>
<line x1="950.5" y1="2.18557e-08" x2="950.5" y2="900" stroke="black" stroke-opacity="0.08"/>
<line x1="960.5" y1="2.18557e-08" x2="960.5" y2="900" stroke="black" stroke-opacity="0.08"/>
<line x1="970.5" y1="2.18557e-08" x2="970.5" y2="900" stroke="black" stroke-opacity="0.08"/>
<line x1="980.5" y1="2.18557e-08" x2="980.5" y2="900" stroke="black" stroke-opacity="0.08"/>
<line x1="990.5" y1="2.18557e-08" x2="990.5" y2="900" stroke="black" stroke-opacity="0.08"/>
<line x1="1000.5" y1="2.18557e-08" x2="1000.5" y2="900" stroke="black" stroke-opacity="0.08"/>
<line x1="1010.5" y1="2.18557e-08" x2="1010.5" y2="900" stroke="black" stroke-opacity="0.08"/>
<line x1="1020.5" y1="2.18557e-08" x2="1020.5" y2="900" stroke="black" stroke-opacity="0.08"/>
<line x1="1030.5" y1="2.18557e-08" x2="1030.5" y2="900" stroke="black" stroke-opacity="0.08"/>
<line x1="1040.5" y1="2.18557e-08" x2="1040.5" y2="900" stroke="black" stroke-opacity="0.08"/>
<line x1="1050.5" y1="2.18557e-08" x2="1050.5" y2="900" stroke="black" stroke-opacity="0.08"/>
<line x1="1060.5" y1="2.18557e-08" x2="1060.5" y2="900" stroke="black" stroke-opacity="0.08"/>
<line x1="1070.5" y1="2.18557e-08" x2="1070.5" y2="900" stroke="black" stroke-opacity="0.08"/>
<line x1="1080.5" y1="2.18557e-08" x2="1080.5" y2="900" stroke="black" stroke-opacity="0.08"/>
<line x1="1090.5" y1="2.18557e-08" x2="1090.5" y2="900" stroke="black" stroke-opacity="0.08"/>
<line x1="1100.5" y1="2.18557e-08" x2="1100.5" y2="900" stroke="black" stroke-opacity="0.08"/>
<line x1="1110.5" y1="2.18557e-08" x2="1110.5" y2="900" stroke="black" stroke-opacity="0.08"/>
<line x1="1120.5" y1="2.18557e-08" x2="1120.5" y2="900" stroke="black" stroke-opacity="0.08"/>
<line x1="1130.5" y1="2.18557e-08" x2="1130.5" y2="900" stroke="black" stroke-opacity="0.08"/>
<line x1="1140.5" y1="2.18557e-08" x2="1140.5" y2="900" stroke="black" stroke-opacity="0.08"/>
<line x1="1150.5" y1="2.18557e-08" x2="1150.5" y2="900" stroke="black" stroke-opacity="0.08"/>
<line x1="1160.5" y1="2.18557e-08" x2="1160.5" y2="900" stroke="black" stroke-opacity="0.08"/>
<line x1="1170.5" y1="2.18557e-08" x2="1170.5" y2="900" stroke="black" stroke-opacity="0.08"/>
<line x1="1180.5" y1="2.18557e-08" x2="1180.5" y2="900" stroke="black" stroke-opacity="0.08"/>
<line x1="1190.5" y1="2.18557e-08" x2="1190.5" y2="900" stroke="black" stroke-opacity="0.08"/>
<line x1="1200.5" y1="2.18557e-08" x2="1200.5" y2="900" stroke="black" stroke-opacity="0.08"/>
<line x1="1210.5" y1="2.18557e-08" x2="1210.5" y2="900" stroke="black" stroke-opacity="0.08"/>
<line x1="1220.5" y1="2.18557e-08" x2="1220.5" y2="900" stroke="black" stroke-opacity="0.08"/>
<line x1="1230.5" y1="2.18557e-08" x2="1230.5" y2="900" stroke="black" stroke-opacity="0.08"/>
<line x1="1240.5" y1="2.18557e-08" x2="1240.5" y2="900" stroke="black" stroke-opacity="0.08"/>
<line x1="1250.5" y1="2.18557e-08" x2="1250.5" y2="900" stroke="black" stroke-opacity="0.08"/>
<line x1="1260.5" y1="2.18557e-08" x2="1260.5" y2="900" stroke="black" stroke-opacity="0.08"/>
<line x1="1270.5" y1="2.18557e-08" x2="1270.5" y2="900" stroke="black" stroke-opacity="0.08"/>
<line x1="1280.5" y1="2.18557e-08" x2="1280.5" y2="900" stroke="black" stroke-opacity="0.08"/>
<line x1="1290.5" y1="2.18557e-08" x2="1290.5" y2="900" stroke="black" stroke-opacity="0.08"/>
<line x1="1300.5" y1="2.18557e-08" x2="1300.5" y2="900" stroke="black" stroke-opacity="0.08"/>
<line x1="1310.5" y1="2.18557e-08" x2="1310.5" y2="900" stroke="black" stroke-opacity="0.08"/>
<line x1="1320.5" y1="2.18557e-08" x2="1320.5" y2="900" stroke="black" stroke-opacity="0.08"/>
<line x1="1330.5" y1="2.18557e-08" x2="1330.5" y2="900" stroke="black" stroke-opacity="0.08"/>
<line x1="1340.5" y1="2.18557e-08" x2="1340.5" y2="900" stroke="black" stroke-opacity="0.08"/>
<line x1="1350.5" y1="2.18557e-08" x2="1350.5" y2="900" stroke="black" stroke-opacity="0.08"/>
<line x1="1360.5" y1="2.18557e-08" x2="1360.5" y2="900" stroke="black" stroke-opacity="0.08"/>
<line x1="1370.5" y1="2.18557e-08" x2="1370.5" y2="900" stroke="black" stroke-opacity="0.08"/>
<line x1="1380.5" y1="2.18557e-08" x2="1380.5" y2="900" stroke="black" stroke-opacity="0.08"/>
<line x1="1390.5" y1="2.18557e-08" x2="1390.5" y2="900" stroke="black" stroke-opacity="0.08"/>
<line x1="1400.5" y1="2.18557e-08" x2="1400.5" y2="900" stroke="black" stroke-opacity="0.08"/>
<line x1="1410.5" y1="2.18557e-08" x2="1410.5" y2="900" stroke="black" stroke-opacity="0.08"/>
<line x1="1420.5" y1="2.18557e-08" x2="1420.5" y2="900" stroke="black" stroke-opacity="0.08"/>
<line x1="1430.5" y1="2.18557e-08" x2="1430.5" y2="900" stroke="black" stroke-opacity="0.08"/>
<line x1="1439.5" y1="2.18557e-08" x2="1439.5" y2="900" stroke="black" stroke-opacity="0.08"/>
</svg>
